<?xml version="1.0" encoding="UTF-8"?>
<svg xmlns="http://www.w3.org/2000/svg" xmlns:se="https://standardebooks.org/vocab/1.0" version="1.1" viewBox="0 0 1400 340" se:generated-from="524f9859618aa2dc68a1996943969f410e5d37e7">
	<path d="M 449.34421,51.404756 449.34421,128.60001 471.70744,128.60001 C 492.94783,128.60001 510.63256,112.50597 510.63256,89.955596 510.63256,67.498796 492.85426,51.404756 471.70744,51.404756 L 449.34421,51.404756 Z M 466.93537,112.88025 466.93537,67.124516 469.6489,67.124516 C 482.7487,67.124516 491.63785,77.136506 491.63785,90.049166 491.54428,102.96183 482.65513,112.88025 469.6489,112.88025 L 466.93537,112.88025 Z"/>
	<path d="M 523.42519,51.404756 523.42519,128.60001 541.01635,128.60001 541.01635,98.096186 564.59599,128.60001 586.95922,128.60001 560.38534,96.692636 C 569.83591,93.698396 576.19867,85.932086 576.19867,74.329406 576.19867,59.171066 565.34455,51.404756 551.02834,51.404756 L 523.42519,51.404756 Z M 541.01635,85.651376 541.01635,65.440256 543.07489,65.440256 C 549.71836,65.440256 557.67181,65.908106 557.67181,75.545816 557.67181,85.183526 549.71836,85.651376 543.07489,85.651376 L 541.01635,85.651376 Z"/>
	<path d="M 634.70171,51.404756 618.42053,51.404756 587.26172,128.60001 606.16286,128.60001 611.87063,113.16096 641.25161,113.16096 646.95938,128.60001 665.86052,128.60001 634.70171,51.404756 Z M 635.26313,97.721906 617.85911,97.721906 626.46755,75.265106 626.65469,75.265106 635.26313,97.721906 Z"/>
	<path d="M 711.93336,112.69311 C 694.24863,112.69311 686.48232,100.34187 686.48232,89.955596 686.48232,79.662896 694.24863,67.311656 711.93336,67.311656 720.91608,67.311656 727.0917,72.083726 727.0917,72.083726 L 734.5773,57.112526 C 734.5773,57.112526 725.96886,50.001206 709.21983,50.001206 687.32445,50.001206 667.39404,67.966646 667.39404,90.142736 667.39404,112.22526 687.41802,130.00356 709.21983,130.00356 725.96886,130.00356 734.5773,122.89224 734.5773,122.89224 L 727.0917,107.92104 C 727.0917,107.92104 720.91608,112.69311 711.93336,112.69311 Z"/>
	<path d="M 805.72252,51.404756 788.13136,51.404756 788.13136,96.037646 C 788.13136,108.95031 784.20142,112.69311 775.59298,112.69311 766.98454,112.69311 763.0546,108.95031 763.0546,96.037646 L 763.0546,51.404756 745.46344,51.404756 745.46344,101.184 C 745.46344,120.27228 755.94328,130.00356 775.59298,130.00356 795.24268,130.00356 805.72252,120.27228 805.72252,101.184 L 805.72252,51.404756 Z"/>
	<path d="M 838.61951,51.404756 821.02835,51.404756 821.02835,128.60001 865.19339,128.60001 865.19339,113.16096 838.61951,113.16096 838.61951,51.404756 Z"/>
	<path d="M 919.51211,51.404756 903.23093,51.404756 872.07212,128.60001 890.97326,128.60001 896.68103,113.16096 926.06201,113.16096 931.76978,128.60001 950.67092,128.60001 919.51211,51.404756 Z M 920.07353,97.721906 902.66951,97.721906 911.27795,75.265106 911.46509,75.265106 920.07353,97.721906 Z"/>
	<path d="M 412.69081,231.05151 412.69081,288.95001 434.65715,288.95001 C 446.65793,288.95001 453.60575,282.35309 453.60575,272.80861 453.60575,263.47467 448.48261,259.47441 441.25407,258.21117 446.16667,255.68469 448.48261,251.12299 448.48261,245.78931 448.48261,234.77105 440.62245,231.05151 430.65689,231.05151 L 412.69081,231.05151 Z M 425.88465,253.71965 425.88465,241.22761 426.93735,241.22761 C 432.69211,241.22761 435.70985,242.98211 435.70985,247.12273 435.70985,251.96515 432.62193,253.71965 426.93735,253.71965 L 425.88465,253.71965 Z M 425.88465,278.77391 425.88465,265.08881 430.02527,265.08881 C 436.27129,265.08881 439.71011,266.98367 439.71011,272.31735 439.71011,276.87905 436.27129,278.77391 430.02527,278.77391 L 425.88465,278.77391 Z"/>
	<path d="M 464.43179,231.05151 464.43179,288.95001 477.62563,288.95001 477.62563,266.07133 495.31099,288.95001 512.08401,288.95001 492.15289,265.01863 C 499.24107,262.77287 504.01331,256.94793 504.01331,248.24561 504.01331,236.87645 495.87243,231.05151 485.13489,231.05151 L 464.43179,231.05151 Z M 477.62563,256.73739 477.62563,241.57851 479.16959,241.57851 C 484.15237,241.57851 490.11767,241.92941 490.11767,249.15795 490.11767,256.38649 484.15237,256.73739 479.16959,256.73739 L 477.62563,256.73739 Z"/>
	<path d="M 549.14202,231.05151 536.9307,231.05151 513.56075,288.95001 527.73712,288.95001 532.0181,277.37031 554.05462,277.37031 558.3356,288.95001 572.51196,288.95001 549.14202,231.05151 Z M 549.5631,265.79061 536.50962,265.79061 542.96618,248.94741 543.10654,248.94741 549.5631,265.79061 Z"/>
	<path d="M 627.56456,288.95001 640.7584,288.95001 635.56508,231.05151 621.52908,231.05151 608.68614,264.45719 595.8432,231.05151 581.8072,231.05151 576.61388,288.95001 589.80772,288.95001 592.54474,254.63199 592.89564,254.63199 604.75606,288.59911 612.61622,288.59911 624.47664,254.63199 624.82754,254.63199 627.56456,288.95001 Z"/>
	<path d="M 695.19768,229.99881 C 685.86374,229.99881 676.31926,236.87645 676.31926,247.68417 676.31926,253.71965 680.3897,259.12351 687.33752,262.56233 694.21516,266.00115 700.391,267.89601 700.391,272.10681 700.391,277.51067 694.91696,277.79139 692.03958,277.79139 685.58302,277.79139 677.86322,271.26465 677.86322,271.26465 L 671.2663,282.35309 C 671.2663,282.35309 679.47736,290.00271 693.0221,290.00271 704.32108,290.00271 714.84808,285.16029 714.84808,271.33483 714.84808,263.75539 707.7599,258.28135 701.30334,255.54433 694.70642,252.73713 689.23238,250.42119 689.23238,247.19291 689.23238,244.03481 691.6185,241.99959 696.11002,241.99959 702.07532,241.99959 707.83008,245.99985 707.83008,245.99985 L 713.16376,235.47285 C 713.16376,235.47285 705.72468,229.99881 695.19768,229.99881 Z"/>
	<path d="M 718.93903,242.63121 732.69431,242.63121 732.69431,288.95001 745.88815,288.95001 745.88815,242.63121 759.64343,242.63121 759.64343,231.05151 718.93903,231.05151 718.93903,242.63121 Z"/>
	<path d="M 764.60505,259.96567 C 764.60505,276.87905 776.67601,290.00271 793.79993,290.00271 810.43259,290.00271 822.92463,276.87905 822.92463,259.96567 822.92463,243.05229 809.87115,229.99881 793.79993,229.99881 777.86907,229.99881 764.60505,243.05229 764.60505,259.96567 Z M 778.85159,259.96567 C 778.85159,251.33353 783.62383,242.70139 793.79993,242.70139 804.04621,242.70139 808.67809,251.33353 808.67809,259.96567 808.67809,268.59781 804.32693,277.22995 793.79993,277.22995 782.99221,277.22995 778.85159,268.59781 778.85159,259.96567 Z"/>
	<path d="M 886.45147,288.95001 859.50235,258.49189 882.80211,231.05151 866.80107,231.05151 846.94013,254.70217 846.94013,231.05151 833.74629,231.05151 833.74629,288.95001 846.94013,288.95001 846.94013,264.38701 868.27485,288.95001 886.45147,288.95001 Z"/>
	<path d="M 927.11057,231.05151 893.98561,231.05151 893.98561,288.95001 927.11057,288.95001 927.11057,277.37031 907.17945,277.37031 907.17945,265.72043 926.26841,265.72043 926.26841,254.14073 907.17945,254.14073 907.17945,242.63121 927.11057,242.63121 927.11057,231.05151 Z"/>
	<path d="M 939.69551,231.05151 939.69551,288.95001 952.88935,288.95001 952.88935,266.07133 970.57471,288.95001 987.34773,288.95001 967.41661,265.01863 C 974.50479,262.77287 979.27703,256.94793 979.27703,248.24561 979.27703,236.87645 971.13615,231.05151 960.39861,231.05151 L 939.69551,231.05151 Z M 952.88935,256.73739 952.88935,241.57851 954.43331,241.57851 C 959.41609,241.57851 965.38139,241.92941 965.38139,249.15795 965.38139,256.38649 959.41609,256.73739 954.43331,256.73739 L 952.88935,256.73739 Z"/>
</svg>
